<svg xmlns="http://www.w3.org/2000/svg" width="512" height="512" viewBox="0 0 512 512" version="1.1"><path d="M 207.695 473.250 C 207.384 475.038, 206.819 477.962, 206.439 479.750 L 205.750 483 256.458 483 C 296.638 483, 307.058 482.740, 306.643 481.750 C 306.355 481.063, 305.386 478.137, 304.489 475.250 L 302.858 470 255.560 470 L 208.262 470 207.695 473.250" stroke="none" fill="#394d63" fill-rule="evenodd"/><path d="M 235.455 410.455 C 234.105 411.805, 233 413.850, 233 415 C 233 416.150, 234.105 418.195, 235.455 419.545 C 237.879 421.969, 238.133 422, 255.882 422 L 273.855 422 275.927 419.365 C 277.067 417.916, 278 415.952, 278 415 C 278 414.048, 277.067 412.084, 275.927 410.635 L 273.855 408 255.882 408 C 238.133 408, 237.879 408.031, 235.455 410.455" stroke="none" fill="#50637a" fill-rule="evenodd"/><path d="M 233.455 148.455 C 232.105 149.805, 231 151.850, 231 153 C 231 154.150, 232.105 156.195, 233.455 157.545 L 235.909 160 271.500 160 L 307.091 160 309.545 157.545 C 310.895 156.195, 312 154.150, 312 153 C 312 151.850, 310.895 149.805, 309.545 148.455 L 307.091 146 271.500 146 L 235.909 146 233.455 148.455 M 235.242 182.034 C 229.905 184.179, 230.106 191.949, 235.553 194.020 C 237.099 194.608, 256.332 195, 283.611 195 L 329.091 195 331.545 192.545 C 332.895 191.195, 334 189.150, 334 188 C 334 186.850, 332.895 184.805, 331.545 183.455 L 329.091 181 283.295 181.063 C 258.108 181.098, 236.484 181.535, 235.242 182.034 M 102.455 222.455 L 100 224.909 100 263.500 L 100 302.091 102.455 304.545 L 104.909 307 181 307 L 257.091 307 259.545 304.545 L 262 302.091 262 263.500 L 262 224.909 259.545 222.455 L 257.091 220 181 220 L 104.909 220 102.455 222.455 M 295.455 222.455 C 294.105 223.805, 293 225.850, 293 227 C 293 228.150, 294.105 230.195, 295.455 231.545 L 297.909 234 356.500 234 L 415.091 234 417.545 231.545 C 418.895 230.195, 420 228.150, 420 227 C 420 225.850, 418.895 223.805, 417.545 222.455 L 415.091 220 356.500 220 L 297.909 220 295.455 222.455 M 295.455 258.455 C 294.105 259.805, 293 261.850, 293 263 C 293 264.150, 294.105 266.195, 295.455 267.545 L 297.909 270 356.500 270 L 415.091 270 417.545 267.545 C 418.895 266.195, 420 264.150, 420 263 C 420 261.850, 418.895 259.805, 417.545 258.455 L 415.091 256 356.500 256 L 297.909 256 295.455 258.455 M 295.455 295.455 C 294.105 296.805, 293 298.850, 293 300 C 293 301.150, 294.105 303.195, 295.455 304.545 L 297.909 307 356.500 307 L 415.091 307 417.545 304.545 C 418.895 303.195, 420 301.150, 420 300 C 420 298.850, 418.895 296.805, 417.545 295.455 L 415.091 293 356.500 293 L 297.909 293 295.455 295.455" stroke="none" fill="#b9b9af" fill-rule="evenodd"/><path d="M 24 95.079 C 17.959 97.810, 13.252 102.451, 10.387 108.500 L 8.020 113.500 8.020 270 L 8.020 426.500 10.387 431.500 C 13.252 437.549, 17.959 442.190, 24 444.921 C 28.419 446.919, 30.147 446.956, 119.879 446.978 L 211.258 447 210.582 455.250 C 210.211 459.788, 209.653 464.963, 209.342 466.750 L 208.777 470 255.805 470 C 292.444 470, 302.965 470.276, 303.428 471.250 C 303.755 471.938, 303.782 471.375, 303.489 470 C 303.195 468.625, 302.673 462.894, 302.328 457.266 L 301.700 447.031 393.100 446.766 C 479.106 446.516, 484.715 446.393, 488.150 444.684 C 493.390 442.076, 498.898 436.277, 501.622 430.500 L 503.980 425.500 503.968 269.500 C 503.956 114.770, 503.940 113.463, 501.921 109 C 499.190 102.959, 494.549 98.252, 488.500 95.387 C 483.973 93.244, 482.152 93.019, 469.250 93.010 L 455 93 455 106.500 L 455 120 459.600 120 C 463.498 120, 464.719 120.519, 467.600 123.400 L 471 126.800 471 255.400 L 471 384 256 384 L 41 384 41 255.400 L 41 126.800 44.400 123.400 C 47.281 120.519, 48.502 120, 52.400 120 L 57 120 57 106.500 L 57 93 42.750 93.022 C 30.591 93.041, 27.840 93.342, 24 95.079 M 235 410 C 233.889 411.111, 233 413.333, 233 415 C 233 416.667, 233.889 418.889, 235 420 C 236.859 421.859, 238.333 422, 255.943 422 C 274.385 422, 274.928 421.941, 276.443 419.777 C 277.299 418.555, 278 416.405, 278 415 C 278 413.595, 277.299 411.445, 276.443 410.223 C 274.928 408.059, 274.385 408, 255.943 408 C 238.333 408, 236.859 408.141, 235 410 M 205 484.162 C 205 487.202, 198.682 494.929, 194.646 496.827 C 192.304 497.927, 189.782 499.557, 189.043 500.449 C 187.208 502.659, 187.500 507.790, 189.591 510.101 C 191.246 511.929, 193.721 512, 255.981 512 L 320.651 512 322.826 509.686 C 324.022 508.413, 325 506.142, 325 504.640 C 325 501.734, 321.084 497, 318.680 497 C 316.143 497, 311.983 492.899, 309.450 487.901 L 306.966 483 255.983 483 C 217.911 483, 205 483.294, 205 484.162" stroke="none" fill="#273f5b" fill-rule="evenodd"/><path d="M 49.094 121.306 C 47.220 121.963, 44.745 123.770, 43.594 125.323 L 41.500 128.146 41.235 256.073 L 40.970 384 255.985 384 L 471 384 470.944 257.750 C 470.901 162.628, 470.593 130.660, 469.694 128.094 C 468.194 123.813, 464.707 121.242, 459.263 120.402 L 455.027 119.749 454.763 225.698 L 454.500 331.647 451.741 335.815 C 450.224 338.107, 447.107 341.224, 444.814 342.741 L 440.646 345.500 256 345.500 L 71.354 345.500 67.186 342.741 C 64.893 341.224, 61.776 338.107, 60.259 335.815 L 57.500 331.647 57.237 225.823 L 56.973 120 54.737 120.056 C 53.506 120.087, 50.967 120.650, 49.094 121.306" stroke="none" fill="#c2c9d1" fill-rule="evenodd"/><path d="M 193.970 22.250 C 180.847 28.879, 180.847 47.121, 193.970 53.750 C 199.614 56.601, 204.386 56.601, 210.030 53.750 C 223.153 47.121, 223.153 28.879, 210.030 22.250 C 207.580 21.012, 203.967 20, 202 20 C 200.033 20, 196.420 21.012, 193.970 22.250" stroke="none" fill="#00ab94" fill-rule="evenodd"/><path d="M 85.231 2.019 C 73.221 6.287, 63.784 15.791, 59.147 28.288 C 57.209 33.511, 57 36.071, 57 54.538 L 57 75 256 75 L 455 75 455 54.657 C 455 37.058, 454.736 33.545, 453.041 28.618 C 448.778 16.228, 438.751 6.215, 426.327 1.940 C 420.830 0.049, 416.491 0.002, 255.593 0.073 C 96.889 0.143, 90.296 0.219, 85.231 2.019 M 97.500 21.417 C 95.850 22.154, 93.291 24.049, 91.814 25.628 C 81.032 37.154, 89.154 56, 104.903 56 C 120.841 56, 129.045 37.240, 118.186 25.627 C 113.148 20.239, 104.214 18.421, 97.500 21.417 M 145.009 21.855 C 139.048 25.052, 135.680 30.200, 135.252 36.765 C 134.809 43.562, 136.768 47.877, 142.345 52.392 C 153.479 61.403, 172 52.414, 172 38 C 172 25.115, 156.367 15.764, 145.009 21.855 M 193.970 22.250 C 180.847 28.879, 180.847 47.121, 193.970 53.750 C 199.614 56.601, 204.386 56.601, 210.030 53.750 C 223.153 47.121, 223.153 28.879, 210.030 22.250 C 207.580 21.012, 203.967 20, 202 20 C 200.033 20, 196.420 21.012, 193.970 22.250" stroke="none" fill="#5fd3ae" fill-rule="evenodd"/><path d="M 99.256 21.066 C 91.774 23.345, 86.041 33.023, 87.503 40.909 C 90.484 57, 111.614 61.069, 120.183 47.204 C 123.333 42.107, 123.333 33.893, 120.183 28.796 C 116.019 22.059, 106.971 18.716, 99.256 21.066 M 158.297 110.350 C 155.528 113.869, 141.382 188.348, 142.864 191.601 C 144.970 196.222, 153.362 195.632, 154.464 190.784 C 154.750 189.528, 158.362 171.940, 162.492 151.700 C 169.458 117.559, 169.894 114.696, 168.537 112.071 C 166.112 107.383, 161.271 106.569, 158.297 110.350 M 109.723 131.083 C 87.602 152.358, 87.595 149.205, 109.817 171.288 C 119.066 180.480, 127.188 188, 127.866 188 C 128.544 188, 130.427 187.313, 132.050 186.474 C 134.513 185.201, 135 184.336, 135 181.238 C 135 177.812, 133.986 176.511, 121.812 164.312 L 108.624 151.097 121.812 138.454 C 134.256 126.525, 135 125.594, 135 121.963 C 135 117.790, 132.395 115, 128.500 115 C 127.205 115, 120.260 120.949, 109.723 131.083 M 178.073 117.635 C 176.933 119.084, 176 121.184, 176 122.302 C 176 123.569, 180.975 129.358, 189.216 137.681 L 202.431 151.027 193.916 159.764 C 180.060 173.979, 176 178.793, 176 181.003 C 176 183.531, 180.241 188, 182.640 188 C 183.592 188, 192.162 180.254, 201.685 170.787 C 214.909 157.641, 219.007 152.975, 219.030 151.037 C 219.054 149.051, 215.324 144.862, 201.857 131.750 C 183.465 113.843, 181.822 112.868, 178.073 117.635" stroke="none" fill="#ff4141" fill-rule="evenodd"/><path d="M 144.970 22.250 C 131.847 28.879, 131.847 47.121, 144.970 53.750 C 150.193 56.389, 154.630 56.598, 159.782 54.449 C 171.582 49.528, 175.458 36.146, 167.657 27.262 C 161.440 20.182, 152.830 18.279, 144.970 22.250" stroke="none" fill="#ffbe00" fill-rule="evenodd"/><path d="M 99.256 21.066 C 91.774 23.345, 86.041 33.023, 87.503 40.909 C 90.484 57, 111.614 61.069, 120.183 47.204 C 123.333 42.107, 123.333 33.893, 120.183 28.796 C 116.019 22.059, 106.971 18.716, 99.256 21.066 M 158.297 110.350 C 155.528 113.869, 141.382 188.348, 142.864 191.601 C 144.970 196.222, 153.362 195.632, 154.464 190.784 C 154.750 189.528, 158.362 171.940, 162.492 151.700 C 169.458 117.559, 169.894 114.696, 168.537 112.071 C 166.112 107.383, 161.271 106.569, 158.297 110.350 M 109.723 131.083 C 87.602 152.358, 87.595 149.205, 109.817 171.288 C 119.066 180.480, 127.188 188, 127.866 188 C 128.544 188, 130.427 187.313, 132.050 186.474 C 134.513 185.201, 135 184.336, 135 181.238 C 135 177.812, 133.986 176.511, 121.812 164.312 L 108.624 151.097 121.812 138.454 C 134.256 126.525, 135 125.594, 135 121.963 C 135 117.790, 132.395 115, 128.500 115 C 127.205 115, 120.260 120.949, 109.723 131.083 M 178.073 117.635 C 176.933 119.084, 176 121.184, 176 122.302 C 176 123.569, 180.975 129.358, 189.216 137.681 L 202.431 151.027 193.916 159.764 C 180.060 173.979, 176 178.793, 176 181.003 C 176 183.531, 180.241 188, 182.640 188 C 183.592 188, 192.162 180.254, 201.685 170.787 C 214.909 157.641, 219.007 152.975, 219.030 151.037 C 219.054 149.051, 215.324 144.862, 201.857 131.750 C 183.465 113.843, 181.822 112.868, 178.073 117.635" stroke="none" fill="#ff4141" fill-rule="evenodd"/><path d="M 347.455 110.455 L 345 112.909 345 151.500 L 345 190.091 347.455 192.545 L 349.909 195 382.500 195 L 415.091 195 417.545 192.545 L 420 190.091 420 151.500 L 420 112.909 417.545 110.455 L 415.091 108 382.500 108 L 349.909 108 347.455 110.455 M 120.462 120.250 L 115.500 125.500 120.750 120.538 C 123.638 117.808, 126 115.446, 126 115.288 C 126 114.541, 125.074 115.372, 120.462 120.250 M 189.500 120 C 192.209 122.750, 194.650 125, 194.925 125 C 195.200 125, 193.209 122.750, 190.500 120 C 187.791 117.250, 185.350 115, 185.075 115 C 184.800 115, 186.791 117.250, 189.500 120 M 130.453 130.250 L 126.500 134.500 130.750 130.547 C 133.088 128.373, 135 126.460, 135 126.297 C 135 125.540, 134.129 126.298, 130.453 130.250 M 188.970 138.230 L 201.431 150.961 197.984 154.730 L 194.538 158.500 198.508 154.744 L 202.478 150.988 189.494 138.244 L 176.510 125.500 188.970 138.230 M 212.500 142 C 215.209 144.750, 217.650 147, 217.925 147 C 218.200 147, 216.209 144.750, 213.500 142 C 210.791 139.250, 208.350 137, 208.075 137 C 207.800 137, 209.791 139.250, 212.500 142 M 97 142.500 C 94.571 144.975, 92.809 147, 93.084 147 C 93.359 147, 95.571 144.975, 98 142.500 C 100.429 140.025, 102.191 138, 101.916 138 C 101.641 138, 99.429 140.025, 97 142.500 M 111.472 148.030 L 108.569 151.059 122.030 164.280 L 135.490 177.500 122.534 164.275 L 109.578 151.050 112.476 148.025 C 114.070 146.361, 115.149 145, 114.874 145 C 114.599 145, 113.068 146.363, 111.472 148.030 M 201.989 170.750 L 185.500 187.500 202.250 171.011 C 211.463 161.943, 219 154.405, 219 154.261 C 219 153.548, 217.307 155.189, 201.989 170.750 M 108.500 171 C 117.287 179.800, 124.702 187, 124.977 187 C 125.252 187, 118.287 179.800, 109.500 171 C 100.713 162.200, 93.298 155, 93.023 155 C 92.748 155, 99.713 162.200, 108.500 171 M 180.453 173.250 L 176.500 177.500 180.750 173.547 C 183.088 171.373, 185 169.460, 185 169.297 C 185 168.540, 184.129 169.298, 180.453 173.250" stroke="none" fill="#ff9a9a" fill-rule="evenodd"/><path d="" stroke="none" fill="#356c74" fill-rule="evenodd"/><path d="M 57.239 203.323 L 57.500 331.646 60.259 335.815 C 61.776 338.107, 64.893 341.224, 67.186 342.741 L 71.354 345.500 256 345.500 L 440.646 345.500 444.814 342.741 C 447.107 341.224, 450.224 338.107, 451.741 335.815 L 454.500 331.646 454.761 203.323 L 455.022 75 256 75 L 56.978 75 57.239 203.323 M 157.544 110.292 C 156.013 112.629, 142 183.342, 142 188.731 C 142 190.358, 142.823 192.435, 143.829 193.345 C 146.223 195.512, 151.285 195.461, 153.230 193.250 C 154.625 191.665, 170 120.084, 170 115.174 C 170 114.127, 169.067 112.084, 167.927 110.635 C 165.174 107.135, 159.731 106.955, 157.544 110.292 M 347.455 110.455 L 345 112.909 345 151.500 L 345 190.091 347.455 192.545 L 349.909 195 382.500 195 L 415.091 195 417.545 192.545 L 420 190.091 420 151.500 L 420 112.909 417.545 110.455 L 415.091 108 382.500 108 L 349.909 108 347.455 110.455 M 109.023 131.091 C 87.085 152.380, 87.120 149.581, 108.523 171.044 C 117.310 179.856, 125.521 187.327, 126.769 187.646 C 132.266 189.052, 137.047 184.100, 135.441 178.665 C 135.089 177.474, 129.108 170.725, 122.150 163.667 L 109.500 150.833 122.477 138.415 C 134.980 126.451, 135.455 125.847, 135.455 121.901 C 135.455 117.126, 133.286 114.972, 128.559 115.051 C 125.990 115.094, 122.863 117.661, 109.023 131.091 M 177.557 117.223 C 173.997 122.304, 175.149 124.468, 188.698 138.162 L 201.397 150.995 197.949 154.748 C 196.052 156.811, 190.338 162.824, 185.250 168.110 C 177.587 176.071, 176 178.259, 176 180.860 C 176 184.731, 179.060 188, 182.683 188 C 184.817 188, 188.814 184.574, 202.183 171.288 C 217.489 156.079, 219 154.265, 219 151.112 C 219 147.944, 217.562 146.249, 202.250 131.366 C 187.816 117.337, 185.059 115.080, 182.307 115.043 C 180.108 115.013, 178.628 115.692, 177.557 117.223 M 233.455 148.455 C 232.105 149.805, 231 151.850, 231 153 C 231 154.150, 232.105 156.195, 233.455 157.545 L 235.909 160 271.500 160 L 307.091 160 309.545 157.545 C 310.895 156.195, 312 154.150, 312 153 C 312 151.850, 310.895 149.805, 309.545 148.455 L 307.091 146 271.500 146 L 235.909 146 233.455 148.455 M 233.455 183.455 C 232.105 184.805, 231 186.850, 231 188 C 231 189.150, 232.105 191.195, 233.455 192.545 L 235.909 195 282.500 195 L 329.091 195 331.545 192.545 C 332.895 191.195, 334 189.150, 334 188 C 334 186.850, 332.895 184.805, 331.545 183.455 L 329.091 181 282.500 181 L 235.909 181 233.455 183.455 M 102.455 222.455 L 100 224.909 100 263.500 L 100 302.091 102.455 304.545 L 104.909 307 181 307 L 257.091 307 259.545 304.545 L 262 302.091 262 263.500 L 262 224.909 259.545 222.455 L 257.091 220 181 220 L 104.909 220 102.455 222.455 M 295.455 222.455 C 294.105 223.805, 293 225.850, 293 227 C 293 228.150, 294.105 230.195, 295.455 231.545 L 297.909 234 356.500 234 L 415.091 234 417.545 231.545 C 418.895 230.195, 420 228.150, 420 227 C 420 225.850, 418.895 223.805, 417.545 222.455 L 415.091 220 356.500 220 L 297.909 220 295.455 222.455 M 295.455 258.455 C 294.105 259.805, 293 261.850, 293 263 C 293 264.150, 294.105 266.195, 295.455 267.545 L 297.909 270 356.500 270 L 415.091 270 417.545 267.545 C 418.895 266.195, 420 264.150, 420 263 C 420 261.850, 418.895 259.805, 417.545 258.455 L 415.091 256 356.500 256 L 297.909 256 295.455 258.455 M 295.455 295.455 C 294.105 296.805, 293 298.850, 293 300 C 293 301.150, 294.105 303.195, 295.455 304.545 L 297.909 307 356.500 307 L 415.091 307 417.545 304.545 C 418.895 303.195, 420 301.150, 420 300 C 420 298.850, 418.895 296.805, 417.545 295.455 L 415.091 293 356.500 293 L 297.909 293 295.455 295.455" stroke="none" fill="#d3d6c8" fill-rule="evenodd"/></svg>